#!OML:ASF G:\JayActor3\Patient Classification 1\Patient 1\Session 5\male.ASF
:FULLY-SPECIFIED
:DEGREES
600
root -12.0008 15.9825 -6.11683 697.872 -88.5379 -683.51
lowerback 27.0712 -0.149824 1.3301
upperback 6.41631 -0.428386 -0.768371
thorax -7.84252 -0.441413 -1.44724
lowerneck 0.711021 -0.740952 1.49186
upperneck -5.53733 -0.911071 1.77741
head -1.83789 -0.543947 0.320735
rclavicle -4.34841e-017 3.10601e-015
rhumerus -32.5821 -6.71895 -86.0375
rradius 26.2974
rwrist 3.01062
rhand -22.5782 -7.97453
rfingers 7.12502
rthumb 3.8504 -37.9195
lclavicle -4.34841e-017 3.10601e-015
lhumerus -32.7141 1.61607 84.8949
lradius 28.4746
lwrist 24.4261
lhand -19.728 10.3685
lfingers 7.12502
lthumb 6.6024 40.2456
rfemur -14.4649 3.61797 24.9599
rtibia 51.3057
rfoot -26.2545 -1.79548
rtoes -12.3851
lfemur -50.1113 2.14515 -26.2987
ltibia 29.4934
lfoot -8.76472 -1.56425
ltoes -4.58224
601
root -12.174 15.99 -6.10695 691.964 -88.3223 -677.508
lowerback 27.3298 -0.0762667 1.16708
upperback 6.39563 -0.382461 -0.811213
thorax -7.99256 -0.419219 -1.41566
lowerneck 0.823447 -0.819119 1.4411
upperneck -5.79029 -1.00943 1.83581
head -1.93914 -0.597964 0.351554
rclavicle 1.9307e-014 3.12465e-014
rhumerus -32.5579 -6.6306 -86.0642
rradius 26.3144
rwrist 2.93952
rhand -22.6527 -7.98955
rfingers 7.12502
rthumb 3.77852 -37.9358
lclavicle 1.9307e-014 3.12465e-014
lhumerus -32.4673 1.51427 84.9615
lradius 28.6453
lwrist 24.5387
lhand -19.9549 10.3101
lfingers 7.12502
lthumb 6.3834 40.1939
rfemur -14.7862 3.27884 24.4207
rtibia 52.5523
rfoot -24.4964 -0.801833
rtoes -12.5477
lfemur -50.1701 2.34523 -26.7139
ltibia 30.5379
lfoot -7.81234 -1.4493
ltoes -3.29647
602
root -12.348 16.0027 -6.09505 690.109 -88.2363 -675.438
lowerback 27.4378 -0.00540329 1.13797
upperback 6.34821 -0.297075 -0.817944
thorax -8.09651 -0.378316 -1.43494
lowerneck 0.969687 -0.894316 1.38939
upperneck -6.00362 -1.10446 1.86429
head -2.03403 -0.648847 0.373445
rclavicle 4.07509e-015 1.51573e-014
rhumerus -32.5184 -6.40987 -86.1222
rradius 26.3456
rwrist 2.87096
rhand -22.6416 -7.98843
rfingers 7.12502
rthumb 3.7892 -37.9345
lclavicle 4.07509e-015 1.51573e-014
lhumerus -32.2819 1.40506 85.0571
lradius 28.8973
lwrist 24.6767
lhand -20.1903 10.1893
lfingers 7.12502
lthumb 6.15605 40.0798
rfemur -15.3607 2.92594 24.0034
rtibia 53.9194
rfoot -22.4702 0.133379
rtoes -12.1953
lfemur -50.2929 2.68382 -27.039
ltibia 31.4349
lfoot -6.81147 -1.44999
ltoes -1.95797
603
root -12.5231 16.0208 -6.08076 691.227 -88.2683 -676.239
lowerback 27.4024 0.0486241 1.22513
upperback 6.27594 -0.194366 -0.788963
thorax -8.15631 -0.329168 -1.48764
lowerneck 1.10418 -0.96012 1.35412
upperneck -6.12043 -1.18996 1.84173
head -2.09594 -0.692199 0.37587
rclavicle 6.36111e-015 4.27387e-014
rhumerus -32.4489 -6.07124 -86.2063
rradius 26.3773
rwrist 2.8322
rhand -22.5535 -7.96037
rfingers 7.12502
rthumb 3.87427 -37.9049
lclavicle 6.36111e-015 4.27387e-014
lhumerus -32.1726 1.31625 85.1739
lradius 29.2079
lwrist 24.8514
lhand -20.4287 9.97088
lfingers 7.12502
lthumb 5.92597 39.868
rfemur -16.1514 2.56068 23.7048
rtibia 55.3824
rfoot -20.2168 0.930959
rtoes -11.3314
lfemur -50.4736 3.08746 -27.2579
ltibia 32.2095
lfoot -5.7737 -1.59602
ltoes -0.291788
604
root -12.6988 16.044 -6.06418 695.411 -88.3686 -680.035
lowerback 27.2413 0.0715994 1.40458
upperback 6.1954 -0.10125 -0.728408
thorax -8.16249 -0.284579 -1.55503
lowerneck 1.17795 -1.01111 1.34239
upperneck -6.10573 -1.26023 1.76417
head -2.10452 -0.724608 0.355416
rclavicle -9.44227e-016 -4.91992e-015
rhumerus -32.3263 -5.65695 -86.3052
rradius 26.4106
rwrist 2.85247
rhand -22.3851 -7.89728
rfingers 7.12502
rthumb 4.0369 -37.8388
lclavicle -9.44227e-016 -4.91992e-015
lhumerus -32.1243 1.25299 85.3075
lradius 29.5546
lwrist 25.0844
lhand -20.6666 9.67693
lfingers 7.12502
lthumb 5.69622 39.5804
rfemur -17.1164 2.17491 23.5084
rtibia 56.9293
rfoot -17.7965 1.51573
rtoes -10.0628
lfemur -50.6872 3.46009 -27.3626
ltibia 32.8919
lfoot -4.74222 -1.83411
ltoes 1.81992
605
root -12.8745 16.0713 -6.04611 701.529 -88.4659 -685.74
lowerback 27.0068 0.06391 1.61217
upperback 6.12083 -0.0392598 -0.655743
thorax -8.12588 -0.254426 -1.61438
lowerneck 1.16514 -1.04801 1.35876
upperneck -5.96166 -1.31601 1.64254
head -2.0558 -0.747057 0.314531
rclavicle 7.25564e-015 -3.27995e-015
rhumerus -32.1503 -5.24096 -86.4022
rradius 26.4585
rwrist 2.94888
rhand -22.1597 -7.79803
rfingers 7.12502
rthumb 4.25458 -37.7353
lclavicle 7.25564e-015 -3.27995e-015
lhumerus -32.1166 1.20116 85.4511
lradius 29.9033
lwrist 25.3868
lhand -20.8926 9.32202
lfingers 7.12502
lthumb 5.47801 39.2312
rfemur -18.2039 1.76646 23.3509
rtibia 58.5585
rfoot -15.2895 1.83844
rtoes -8.60693
lfemur -50.8767 3.72599 -27.391
ltibia 33.4981
lfoot -3.80464 -2.06962
ltoes 4.26701
